<svg width="15" height="16" viewBox="0 0 15 16" fill="none" xmlns="http://www.w3.org/2000/svg">
<g clip-path="url(#clip0_0_190)">
<path d="M3.75 12.375C3.75 13.0625 4.3125 13.625 5 13.625H10C10.6875 13.625 11.25 13.0625 11.25 12.375V6.125C11.25 5.4375 10.6875 4.875 10 4.875H5C4.3125 4.875 3.75 5.4375 3.75 6.125V12.375ZM11.25 3H9.6875L9.24375 2.55625C9.13125 2.44375 8.96875 2.375 8.80625 2.375H6.19375C6.03125 2.375 5.86875 2.44375 5.75625 2.55625L5.3125 3H3.75C3.40625 3 3.125 3.28125 3.125 3.625C3.125 3.96875 3.40625 4.25 3.75 4.25H11.25C11.5937 4.25 11.875 3.96875 11.875 3.625C11.875 3.28125 11.5937 3 11.25 3Z" fill="#E53E3E"/>
</g>
<defs>
<clipPath id="clip0_0_190">
<rect width="15" height="15" fill="white" transform="translate(0 0.5)"/>
</clipPath>
</defs>
</svg>
