<svg width="13" height="13" viewBox="0 0 13 13" fill="none" xmlns="http://www.w3.org/2000/svg">
<path d="M12.6296 11.5958L9.87304 8.83927C10.5367 7.95578 10.895 6.88039 10.8937 5.7754C10.8937 2.95294 8.59746 0.656654 5.775 0.656654C2.95254 0.656654 0.65625 2.95294 0.65625 5.7754C0.65625 8.59786 2.95254 10.8941 5.775 10.8941C6.87998 10.8954 7.95537 10.5371 8.83886 9.87345L11.5954 12.63C11.7349 12.7547 11.9169 12.8213 12.104 12.8161C12.2911 12.8108 12.4691 12.7342 12.6014 12.6018C12.7338 12.4695 12.8104 12.2915 12.8157 12.1044C12.8209 11.9173 12.7543 11.7353 12.6296 11.5958ZM2.11875 5.7754C2.11875 5.05226 2.33318 4.34537 2.73494 3.7441C3.13669 3.14283 3.70772 2.6742 4.37581 2.39747C5.0439 2.12074 5.77905 2.04833 6.4883 2.18941C7.19754 2.33048 7.84902 2.67871 8.36036 3.19004C8.87169 3.70138 9.21992 4.35286 9.36099 5.0621C9.50207 5.77135 9.42966 6.5065 9.15293 7.17459C8.8762 7.84268 8.40757 8.41371 7.8063 8.81546C7.20503 9.21721 6.49814 9.43165 5.775 9.43165C4.80566 9.43049 3.87635 9.0449 3.19092 8.35948C2.5055 7.67405 2.11991 6.74474 2.11875 5.7754Z" fill="#2D3748"/>
</svg>
