<svg width="12" height="12" viewBox="0 0 12 12" fill="none" xmlns="http://www.w3.org/2000/svg">
<path d="M6.00003 4.12517C5.62919 4.12517 5.26668 4.23513 4.95834 4.44116C4.65 4.64719 4.40967 4.94002 4.26776 5.28264C4.12584 5.62525 4.08871 6.00225 4.16106 6.36596C4.23341 6.72967 4.41198 7.06377 4.67421 7.32599C4.93643 7.58821 5.27052 7.76679 5.63424 7.83914C5.99795 7.91149 6.37495 7.87435 6.71756 7.73244C7.06017 7.59053 7.35301 7.3502 7.55904 7.04186C7.76506 6.73352 7.87503 6.37101 7.87503 6.00017C7.87355 5.50334 7.67553 5.02729 7.32422 4.67598C6.97291 4.32467 6.49686 4.12665 6.00003 4.12517V4.12517ZM10.0482 6.00017C10.0472 6.17537 10.0343 6.3503 10.0097 6.52376L11.1509 7.4172C11.2006 7.45824 11.2341 7.51561 11.2454 7.57907C11.2567 7.64253 11.245 7.70794 11.2125 7.7636L10.133 9.62735C10.1002 9.68253 10.049 9.72436 9.98834 9.74549C9.92773 9.76663 9.8616 9.76571 9.80159 9.7429L8.4598 9.20384C8.18039 9.41899 7.87463 9.59755 7.54995 9.73516L7.34933 11.1597C7.3381 11.2235 7.30506 11.2814 7.25586 11.3236C7.20665 11.3657 7.14434 11.3895 7.07956 11.3908H4.9205C4.8569 11.3896 4.7956 11.3668 4.74661 11.3262C4.69761 11.2857 4.66382 11.2297 4.65073 11.1674L4.45011 9.7429C4.12453 9.60688 3.81855 9.42803 3.54027 9.2111L2.19847 9.75016C2.13849 9.773 2.07238 9.77395 2.01177 9.75286C1.95115 9.73177 1.89992 9.68998 1.86706 9.63485L0.787533 7.77134C0.755039 7.71567 0.743398 7.65027 0.75469 7.58681C0.765982 7.52335 0.799472 7.46597 0.849174 7.42493L1.99035 6.53149C1.966 6.35541 1.95317 6.17792 1.95191 6.00017C1.95288 5.82497 1.96572 5.65004 1.99035 5.47657L0.849174 4.58314C0.799472 4.5421 0.765982 4.48472 0.75469 4.42126C0.743398 4.3578 0.755039 4.29239 0.787533 4.23673L1.86706 2.37298C1.89988 2.31781 1.9511 2.27597 2.01172 2.25484C2.07234 2.2337 2.13846 2.23462 2.19847 2.25743L3.54027 2.7965C3.81967 2.58134 4.12543 2.40279 4.45011 2.26517L4.65073 0.840637C4.66196 0.776828 4.695 0.718899 4.74421 0.676749C4.79341 0.634598 4.85572 0.610843 4.9205 0.609543H7.07956C7.14316 0.610781 7.20446 0.633541 7.25345 0.674108C7.30245 0.714674 7.33625 0.770652 7.34933 0.832902L7.54995 2.25743C7.87594 2.39336 8.18232 2.57221 8.46097 2.78923L9.80159 2.25017C9.86157 2.22734 9.92768 2.22638 9.98829 2.24747C10.0489 2.26856 10.1001 2.31035 10.133 2.36548L11.2125 4.22923C11.245 4.2849 11.2567 4.3503 11.2454 4.41376C11.2341 4.47722 11.2006 4.5346 11.1509 4.57564L10.0097 5.46907C10.034 5.64508 10.0469 5.82249 10.0482 6.00017V6.00017Z" fill="white"/>
</svg>
