<svg width="25" height="9" viewBox="0 0 25 9" fill="none" xmlns="http://www.w3.org/2000/svg">
<path fill-rule="evenodd" clip-rule="evenodd" d="M12.6707 2.96349C12.6568 4.15055 13.6529 4.81298 14.4033 5.20684C15.1743 5.61099 15.4333 5.87013 15.4303 6.23147C15.4245 6.78459 14.8153 7.02862 14.2452 7.03812C13.2505 7.05475 12.6722 6.74889 12.2124 6.51753L11.8541 8.32341C12.3154 8.55247 13.1695 8.75217 14.0553 8.76087C16.1344 8.76087 17.4947 7.65543 17.5021 5.94145C17.5102 3.76625 14.7086 3.64579 14.7277 2.67348C14.7344 2.37871 14.9955 2.06408 15.5679 1.98406C15.8511 1.94368 16.6332 1.91274 17.5197 2.35252L17.8677 0.605286C17.391 0.418253 16.7781 0.239136 16.0152 0.239136C14.0583 0.239136 12.6818 1.35962 12.6707 2.96349ZM21.2114 0.389687C20.8318 0.389687 20.5118 0.628245 20.3691 0.99433L17.399 8.63249H19.4766L19.8901 7.40183H22.429L22.6688 8.63249H24.4999L22.902 0.389687H21.2114ZM21.502 2.61641L22.1016 5.7116H20.4595L21.502 2.61641ZM10.1518 0.389687L8.51412 8.63249H10.4938L12.1307 0.389687H10.1518ZM7.22297 0.389687L5.16227 6.00003L4.32872 1.22966C4.23091 0.697187 3.84466 0.389687 3.41573 0.389687H0.04704L-6.10352e-05 0.629037C0.691513 0.790671 1.47723 1.0514 1.9532 1.33033C2.24451 1.50067 2.32768 1.64964 2.4233 2.05458L4.00208 8.63249H6.09444L9.30204 0.389687H7.22297Z" fill="#3182CE"/>
</svg>
